<?xml version="1.0" encoding="UTF-8"?>
<svg width="1039" height="1039" viewBox="0 0 1039 1039" xmlns="http://www.w3.org/2000/svg">
    <g id="Final-Logo">
        <g id="Logomark---White">
            <g id="Group-3">
                <g id="Group-2"/>
                <g id="Group"/>
                <path id="Combined-Shape" fill="#ffffff" fill-rule="evenodd" stroke="none" d="M 841.679626 735.220703 C 842.91571 733.05072 844.623352 727.966125 847.019897 718.488342 C 859.6073 668.707886 885.564331 588.969055 893.823425 583.053833 C 902.082458 577.13855 904.651428 580.948242 915.344299 581.977356 C 926.037109 583.00647 940.188416 584.458557 945.789551 580.602417 C 958.075928 572.143738 964.532349 560.99231 959.214111 554.777222 C 946.538086 539.963867 931.890991 525.025635 928.004089 521.098389 C 917.374695 510.358643 919.931641 499.685425 918.382935 489.210449 C 916.834167 478.735474 910.590149 462.815491 910.590149 462.815491 C 910.590149 462.815491 938.102112 405.841675 917.935181 415.43689 C 913.078735 417.747437 872.720459 441.075317 867.132629 441.075317 C 855.476685 441.075317 851.974182 440.24115 841.467285 429.604492 C 832.710022 420.738953 822.857666 395.789307 812.081604 376.499573 C 805.578979 364.859497 794.483887 383.425903 787.422791 404.351196 C 786.025269 408.492737 778.882019 438.047607 780.153564 448.980835 C 781.42511 459.914063 756.392578 489.713196 745.40155 500.095825 C 739.615967 505.561157 733.103516 511.174072 725.652405 516.363342 C 701.605835 528.454102 666.219788 541.118408 600.248047 554.073486 L 576.960815 558.594055 C 569.334717 559.832397 565.326965 560.57666 564.272339 561.048401 C 387.429565 594.927063 374.883514 591.957825 323.684601 656.253174 C 294.434601 692.985168 274.014832 796.691101 270.266144 854.034607 C 265.837921 886.55072 270.447754 910.900635 274.925323 922.571167 C 282.364258 941.960449 316.111206 936.06958 318.902283 952.817688 C 321.693329 969.565796 326.029602 969.665466 271.753632 969.665466 C 254.823944 969.665466 245.763062 969.002258 234.490692 963.310669 C 223.218323 957.61908 219.583649 942.367065 215.94278 930.883362 C 212.30191 919.399658 191.032043 839.07428 188.037781 802.394592 C 185.895538 776.151978 192.172729 753.905334 201.94397 720.350647 C 208.558105 697.637634 216.524292 667.809631 223.043396 627.266602 L 189.050171 733.442017 C 185.989624 741.794312 182.011719 750.279785 176.442841 758.654785 C 167.33107 772.612549 153.977951 786.28595 132.793945 798.526794 C 122.650238 804.388184 113.3573 809.448181 104.857635 813.768188 C -90.392387 918.884399 40.428146 753.169617 74.482285 697.60083 L 77.31424 693.66217 C 123.606247 617.023743 167.810013 541.322205 212.11499 507.557861 C 257.20108 473.198303 265.487671 461.677979 377.398895 439.20813 C 444.561279 425.723083 613.8078 401.761841 727.304688 364.12439 C 714.304016 354.883728 709.42334 344.071899 708.487671 342.973938 C 696.965393 329.453369 737.51123 298.866455 768.456787 278.230408 L 769.601257 277.379211 C 781.349365 270.566467 779.443665 253.974731 781.763794 238.39502 C 784.342468 221.079041 790.446838 205.013184 790.446838 205.013184 C 790.446838 205.013184 746.000549 118.989807 776.334595 133.260986 C 783.639404 136.697693 844.344055 171.393921 852.749023 171.393921 C 870.28125 171.393921 875.549561 170.153259 891.353394 154.332947 C 904.525635 141.146973 919.344971 104.038452 935.553711 75.348267 C 945.334717 58.035461 960.526367 85.650024 974.141113 116.772949 C 976.713867 122.654175 986.194214 152.798706 989.565796 168.197327 C 992.383057 181.064758 1024.662476 240.359497 1033.361938 307.259033 C 1048.409668 395.131287 1036.812866 515.546875 959.971069 664.328796 C 944.881653 701.734314 925.821045 745.014832 918.108643 778.977112 C 907.145386 827.255127 892.027161 902.009888 899.466675 921.392517 C 906.906189 940.775208 940.359863 937.235474 942.201416 951.628723 C 943.164856 959.158875 945.412109 963.419739 939.563354 965.770996 C 935.463745 968.570801 924.133728 969.509521 895.821472 969.509521 C 877.773621 969.509521 863.387146 969.941589 852.854675 961.624207 C 841.814453 952.905884 841.149109 944.707825 836.458191 930.727417 C 833.619812 922.268066 831.172424 897.647278 830.376343 868.618469 C 829.461609 849.412292 829.241211 828.202148 830.500854 808.43103 C 831.698242 789.637329 835.125793 766.689331 840.972473 738.757996 L 841.679626 735.220703 Z"/>
            </g>
        </g>
    </g>
</svg>
