<?xml version="1.0" standalone="no"?>
<!DOCTYPE svg PUBLIC "-//W3C//DTD SVG 20010904//EN"
 "http://www.w3.org/TR/2001/REC-SVG-20010904/DTD/svg10.dtd">
<svg version="1.0" xmlns="http://www.w3.org/2000/svg"
 width="866.000000pt" height="866.000000pt" viewBox="0 0 866.000000 866.000000"
 preserveAspectRatio="xMidYMid meet">
<metadata>
Created by potrace 1.11, written by Peter Selinger 2001-2013
</metadata>
<g transform="translate(0.000000,866.000000) scale(0.100000,-0.100000)"
fill="#000000" stroke="none">
<path d="M7806 8057 c-14 -19 -80 -141 -147 -273 -142 -280 -187 -353 -266
-429 -75 -72 -141 -105 -226 -111 -94 -7 -130 10 -632 281 -122 66 -155 62
-155 -20 0 -79 91 -330 181 -498 l21 -38 -30 -112 c-36 -132 -39 -150 -47
-242 -16 -187 -33 -218 -166 -305 -12 -8 -75 -54 -139 -102 -199 -148 -311
-271 -313 -344 -1 -39 49 -119 117 -185 l47 -45 -133 -42 c-121 -38 -404 -117
-453 -126 -11 -2 -96 -23 -190 -45 -93 -23 -183 -44 -200 -47 -16 -3 -46 -9
-65 -14 -19 -5 -46 -11 -60 -14 -14 -2 -79 -15 -145 -29 -115 -25 -502 -100
-575 -112 -19 -3 -46 -8 -60 -10 -49 -10 -77 -15 -220 -40 -80 -14 -156 -28
-170 -31 -14 -2 -41 -7 -60 -10 -19 -3 -42 -7 -50 -9 -8 -2 -35 -7 -60 -10
-25 -3 -52 -8 -60 -10 -8 -2 -31 -7 -50 -10 -94 -15 -269 -47 -383 -71 -42 -8
-87 -17 -100 -19 -12 -3 -74 -16 -137 -31 -63 -14 -122 -27 -130 -29 -295 -67
-542 -164 -710 -280 -312 -215 -489 -381 -686 -645 -75 -100 -246 -346 -257
-371 -4 -8 -24 -40 -45 -72 -20 -31 -72 -114 -116 -185 -43 -70 -86 -138 -95
-152 -9 -14 -58 -95 -109 -180 -51 -85 -164 -263 -252 -395 -366 -552 -480
-769 -480 -919 0 -47 4 -61 29 -88 29 -33 30 -33 118 -32 70 1 108 8 186 33
124 41 339 137 517 232 309 165 389 218 496 324 138 138 197 251 299 570 37
116 77 242 89 280 13 39 40 127 62 198 21 70 42 127 47 127 4 0 6 -4 3 -8 -3
-5 -8 -24 -11 -43 -3 -19 -8 -41 -10 -49 -2 -8 -6 -32 -10 -54 -3 -21 -7 -41
-9 -45 -3 -3 -7 -24 -10 -46 -6 -39 -80 -331 -109 -430 -23 -80 -88 -326 -94
-354 -26 -133 -30 -181 -28 -301 2 -74 6 -146 9 -160 4 -14 8 -41 11 -60 3
-19 7 -46 10 -60 3 -14 8 -41 11 -60 4 -19 8 -42 10 -50 3 -15 33 -153 39
-180 2 -8 13 -58 25 -110 85 -381 170 -641 227 -692 35 -32 130 -66 206 -75
102 -12 453 -8 505 6 46 13 56 32 47 83 -3 18 -7 41 -9 51 -5 38 -55 75 -138
103 -176 58 -221 94 -243 194 -2 8 -8 35 -14 60 -23 101 -30 262 -17 395 18
190 28 279 41 380 7 47 35 221 41 250 3 11 6 31 9 45 2 14 8 45 14 70 5 25 12
56 15 70 13 70 60 257 87 345 92 302 170 463 303 622 212 254 345 351 600 438
88 30 271 78 346 91 14 3 41 9 60 14 19 5 53 12 75 15 22 4 48 8 57 11 10 3
30 7 45 10 16 3 134 25 263 50 129 25 260 50 290 55 30 5 111 21 180 35 131
26 208 41 250 48 95 17 322 66 470 101 312 75 611 190 720 276 71 56 179 167
244 249 121 155 141 198 149 315 8 110 12 133 43 260 40 158 130 325 176 325
26 0 38 -18 119 -180 99 -200 152 -284 209 -330 52 -43 70 -50 136 -57 48 -5
59 -1 195 70 79 41 178 93 220 116 72 39 78 41 94 25 27 -28 12 -96 -62 -282
l-46 -114 25 -76 c30 -91 38 -126 44 -207 5 -65 18 -119 37 -151 6 -12 64 -77
128 -145 170 -180 189 -204 183 -235 -10 -55 -42 -99 -110 -151 -35 -26 -44
-28 -133 -29 -53 -1 -132 5 -176 13 -127 22 -145 8 -221 -174 -79 -189 -233
-669 -299 -933 -9 -36 -27 -101 -40 -145 -21 -68 -53 -223 -81 -395 -23 -141
-28 -245 -29 -515 0 -233 10 -500 20 -554 1 -9 6 -41 9 -72 10 -81 12 -93 47
-202 47 -144 112 -210 234 -237 48 -11 466 -15 520 -5 72 13 84 17 100 35 13
15 16 30 11 69 -3 27 -9 56 -12 65 -9 23 -59 51 -156 86 -100 36 -160 76 -185
122 -26 48 -25 302 2 448 3 14 7 43 10 65 2 22 6 49 9 60 2 11 7 40 11 65 4
25 9 54 11 65 2 11 7 34 10 50 5 30 61 300 78 380 62 286 250 784 455 1207 50
103 91 190 91 193 0 3 16 39 35 81 19 41 35 78 35 80 0 3 8 24 19 47 50 111
144 386 220 642 23 78 87 352 96 412 3 22 8 50 10 63 3 14 8 41 11 60 2 19 7
46 9 60 3 14 7 48 11 75 3 28 7 62 10 76 24 152 24 696 0 839 -3 14 -7 48 -11
75 -12 103 -47 294 -71 395 -44 182 -179 560 -274 766 -10 23 -32 92 -49 155
-37 139 -108 365 -126 399 -8 14 -32 63 -55 110 -68 140 -109 199 -159 232
-38 26 -57 22 -85 -15z"/>
</g>
</svg>
